<svg width="258" height="136" viewBox="0 0 258 136" fill="none" xmlns="http://www.w3.org/2000/svg">
<path d="M257.567 117.694C257.567 117.694 257.567 117.695 257.566 117.694C257.386 117.636 257.188 117.704 257.079 117.859C255.386 120.278 253.191 122.222 250.494 123.694C247.761 125.157 244.869 125.887 241.818 125.887C236.796 125.887 232.792 123.886 229.807 119.879C226.819 115.811 225.325 110.409 225.325 103.671V103.626C225.325 103.388 225.517 103.193 225.757 103.193H256.897C257.146 103.193 257.344 102.981 257.328 102.732L257.262 101.761C257.008 98.1396 255.961 94.9619 254.116 92.2285C252.336 89.4328 249.922 87.271 246.869 85.7458C245.299 84.9422 243.601 84.3537 241.784 83.9745C241.702 83.9575 241.617 83.9632 241.541 83.9943C240.667 84.3254 239.798 84.6423 238.941 84.9479C238.587 85.0724 238.559 85.5506 238.884 85.7345C240.239 86.4957 241.377 87.769 242.291 89.5602C243.895 92.585 244.722 96.5069 244.767 101.326C244.767 101.566 244.574 101.761 244.334 101.761H225.874C225.625 101.761 225.426 101.552 225.441 101.303C225.735 96.3682 226.773 92.4237 228.562 89.464C228.692 89.2489 228.825 89.0395 228.961 88.8414C229.181 88.5132 228.873 88.0859 228.491 88.1878C225.308 89.031 222.334 89.6931 219.612 90.2081C219.524 90.2251 219.445 90.2676 219.382 90.3298C217.886 91.8465 216.59 93.5895 215.503 95.5674C213.406 99.3817 212.356 103.83 212.356 108.915C212.356 114 213.31 118.289 215.217 122.166C217.124 125.98 219.762 128.965 223.132 131.127C226.564 133.289 230.472 134.37 234.858 134.37C238.479 134.37 241.85 133.671 244.962 132.273C248.078 130.875 250.777 128.937 253.066 126.458C255.256 124.087 256.895 121.365 257.976 118.292C258.055 118.066 257.93 117.814 257.701 117.737L257.567 117.693C257.567 117.693 257.566 117.693 257.567 117.694V117.694Z" fill="white"/>
<path d="M206.48 124.65L206.55 92.3614C206.55 92.1124 206.344 91.9143 206.095 91.9285C204.714 92.0072 203.634 92.0327 202.89 92.0381C202.096 92.0439 201.303 92.0282 200.509 92.0254C197.951 92.0163 195.5 91.9777 193.149 91.9115C192.892 91.903 192.688 92.1209 192.711 92.3755C192.739 92.7009 192.753 93.0348 192.753 93.3801V121.294C192.753 121.368 192.733 121.444 192.697 121.509C191.12 124.322 189.295 126.577 187.224 128.272C185.127 129.925 183.093 130.751 181.123 130.751C179.154 130.751 177.436 129.797 176.166 127.89C174.895 125.983 174.259 123.442 174.259 120.264V91.006C174.259 90.7881 174.095 90.6042 173.877 90.5787C168.826 89.9817 164.369 89.2262 160.343 88.3575C159.998 88.2839 159.717 88.6263 159.856 88.9517C160.365 90.1401 160.623 91.6144 160.623 93.3801V119.313C160.623 123.889 161.893 127.576 164.437 130.372C167.043 133.167 170.476 134.568 174.734 134.568C178.483 134.568 182.043 133.552 185.413 131.518C188.285 129.783 190.535 127.61 192.159 124.995C192.388 124.627 192.954 124.783 192.957 125.216L193.036 135.589C193.036 135.762 193.178 135.901 193.35 135.901C193.452 135.901 193.545 135.85 193.605 135.765C194.307 134.771 195.466 134.089 197.079 133.719C197.104 133.713 197.129 133.708 197.153 133.702V133.702C197.977 133.575 199.018 133.45 200.28 133.323C201.55 133.261 203.013 133.227 204.666 133.227H213.673C213.91 133.227 214.105 133.034 214.105 132.794C214.105 132.556 213.916 132.369 213.681 132.361C211.587 132.279 209.886 131.583 208.576 130.273C207.179 128.81 206.48 126.936 206.48 124.647V124.65Z" fill="white"/>
<path d="M150.221 124.65C150.219 124.65 150.218 124.649 150.218 124.647V86.043C150.218 85.8534 150.094 85.6864 149.912 85.6299C145.249 84.1896 141.118 82.622 137.077 81.0572C136.794 80.9468 136.492 81.1562 136.492 81.459V124.65C136.492 127.002 135.762 128.878 134.299 130.276C132.988 131.526 131.285 132.191 129.194 132.27C128.959 132.279 128.77 132.466 128.77 132.703V132.8C128.77 133.037 128.962 133.232 129.202 133.232H157.513C157.75 133.232 157.946 133.04 157.946 132.8V132.703C157.946 132.468 157.756 132.282 157.521 132.27C155.425 132.191 153.69 131.526 152.32 130.276C150.923 128.878 150.224 127.003 150.224 124.653C150.224 124.652 150.222 124.65 150.221 124.65V124.65Z" fill="white"/>
<path d="M127.375 95.7625C125.723 91.9482 123.433 88.929 120.51 86.7049C117.587 84.4809 114.248 83.3688 110.499 83.3688C107.322 83.3688 104.399 84.2262 101.727 85.9438C99.5656 87.3671 97.7999 89.1837 96.4247 91.3936C96.1955 91.7643 95.6268 91.6058 95.6268 91.1701V71.1647C95.6268 70.9383 95.4541 70.7516 95.2306 70.7346C91.2272 70.426 86.8511 70.237 82.0222 70.1897C81.9537 70.189 81.8975 70.2444 81.8975 70.313V70.313V134.141C81.8975 134.378 82.0899 134.574 82.3304 134.574H82.6728C82.7888 134.574 82.8991 134.528 82.9784 134.446L91.7474 125.59C91.9596 125.377 92.3218 125.437 92.4463 125.711C95.1203 131.619 100.123 134.574 107.452 134.574C111.965 134.574 115.904 133.493 119.274 131.331C122.644 129.169 125.247 126.15 127.092 122.273C128.999 118.397 129.953 113.915 129.953 108.83C129.953 103.745 129.095 99.5825 127.378 95.7682L127.375 95.7625ZM112.31 126.651C110.593 130.847 108.052 132.944 104.684 132.944C102.078 132.944 99.9815 131.801 98.3913 129.511C96.8039 127.163 95.8842 124.022 95.6268 120.089C95.6268 120.077 95.6268 120.066 95.6268 120.058V96.2294C95.6268 96.1728 95.6381 96.1191 95.6579 96.0653C96.5492 93.8073 97.9386 91.77 99.8231 89.9477C101.792 88.1056 104.051 87.1831 106.592 87.1831C109.452 87.1831 111.549 88.8979 112.885 92.3302C114.22 95.7625 114.885 101.037 114.885 108.156C114.885 116.291 114.028 122.457 112.31 126.651Z" fill="white"/>
<path d="M201.487 59.5888C201.488 59.5898 201.487 59.591 201.485 59.5906C201.305 59.533 201.109 59.601 200.999 59.7557C199.307 62.1751 197.111 64.119 194.414 65.5904C191.681 67.0533 188.789 67.7834 185.739 67.7834C180.719 67.7834 176.712 65.7828 173.727 61.7761C170.739 57.7071 169.245 52.3054 169.245 45.568V45.5228C169.245 45.2851 169.437 45.0898 169.678 45.0898H200.818C201.067 45.0898 201.265 44.8776 201.248 44.6286L201.183 43.6581C200.928 40.0361 199.881 36.8585 198.036 34.1251C196.256 31.3294 193.84 29.1676 190.79 27.6424C187.802 26.1173 184.369 25.3533 180.493 25.3533C175.852 25.3533 171.69 26.4342 168.003 28.596C164.381 30.6928 161.52 33.6497 159.423 37.4612C157.327 41.2755 156.277 45.7237 156.277 50.8085C156.277 55.8933 157.23 60.183 159.138 64.0596C161.045 67.8739 163.682 70.8591 167.052 73.021C170.484 75.1828 174.392 76.2637 178.778 76.2637C182.4 76.2637 185.77 75.5648 188.883 74.167C191.998 72.7691 194.697 70.8308 196.987 68.3521C199.177 65.9809 200.815 63.2588 201.896 60.1858C201.975 59.9595 201.851 59.7076 201.621 59.6312L201.489 59.587C201.488 59.5866 201.487 59.5877 201.487 59.5888V59.5888ZM172.485 31.3662C174.327 28.3159 176.647 26.7907 179.446 26.7907C182.244 26.7907 184.627 28.347 186.214 31.4624C187.819 34.4873 188.645 38.4091 188.69 43.228C188.69 43.4685 188.498 43.6637 188.257 43.6637H169.797C169.548 43.6637 169.35 43.4543 169.364 43.2053C169.658 38.2705 170.697 34.326 172.485 31.3662Z" fill="white"/>
<path d="M136.56 39.5863C136.56 39.5863 136.56 39.5863 136.56 39.5863C136.56 39.5863 136.56 39.558 136.56 39.5467C136.24 35.7437 135.287 32.699 133.702 30.4155C132.177 28.1264 130.174 26.9832 127.695 26.9832C124.39 26.9832 121.815 29.08 119.973 33.2763C118.193 37.4698 117.302 43.6666 117.302 51.8669C117.302 57.5346 117.749 62.0478 118.646 65.4094C118.731 65.7235 118.448 66.0121 118.131 65.9357C114.031 64.9623 109.478 64.1078 104.28 63.423C104.119 63.4032 103.983 63.2928 103.926 63.14C102.675 59.6624 102.047 55.8085 102.047 51.5811C102.047 46.2416 103.032 41.6038 105.004 37.6622C107.039 33.7205 109.834 30.7013 113.394 28.6046C116.954 26.4428 121.054 25.3618 125.692 25.3618C128.298 25.3618 130.425 25.775 132.081 26.6012C133.425 27.2209 134.661 28.2198 135.796 29.5949C136.054 29.909 136.563 29.7308 136.563 29.3233V12.2041C136.563 9.91497 135.833 8.07289 134.37 6.67506C133.06 5.36495 131.356 4.66887 129.262 4.58681C129.028 4.57832 128.838 4.39156 128.838 4.15388V4.05484C128.838 3.81715 129.03 3.62191 129.271 3.62191H138.563C141.741 3.62191 144.158 3.30499 145.81 2.66833C147.366 2.06845 148.501 1.24503 149.211 0.195243C149.291 0.0763996 149.423 0 149.568 0H149.856C150.094 0 150.289 0.192414 150.289 0.432931V66.5469C150.289 68.8361 150.988 70.6781 152.386 72.076C153.699 73.3889 155.434 74.085 157.587 74.167C157.822 74.1755 158.011 74.3623 158.011 74.5972V74.6962C158.011 74.9339 157.819 75.1291 157.578 75.1291H148.286C147.344 75.1291 146.469 75.1631 145.657 75.2282C145.595 75.2338 145.533 75.2253 145.473 75.2027C142.681 74.1557 139.961 73.0776 137.168 72.0052C137.001 71.943 136.891 71.7817 136.891 71.6062L136.857 66.9685L136.56 39.5892V39.5863Z" fill="white"/>
<path d="M86.5383 28.5068C86.5395 28.5062 86.5395 28.5045 86.5384 28.5039C82.6624 26.4082 78.119 25.3589 72.9081 25.3589C67.6959 25.3589 63.1204 26.4087 59.1788 28.5054C55.3022 30.6022 52.283 33.5591 50.1212 37.3706C47.9593 41.1849 46.8784 45.6982 46.8784 50.9075C46.8784 56.1168 47.9593 60.6329 50.1212 64.4444C50.1381 64.4727 50.1523 64.501 50.1693 64.5292C50.2655 64.6934 50.4579 64.7754 50.6446 64.7301C55.2711 63.6266 59.3797 62.9192 62.8205 62.4693C63.0695 62.4353 63.2364 62.2005 63.1827 61.9543C62.4838 58.6578 62.1329 54.9482 62.1329 50.8141C62.1329 46.4282 62.5771 42.3932 63.4685 38.7062C64.3598 35.0192 65.5963 32.0651 67.1866 29.841C68.8391 27.6169 70.7462 26.5049 72.9081 26.5049C74.9426 26.5049 76.7535 27.5547 78.3409 29.6514C79.9934 31.6859 81.2639 34.5466 82.1552 38.2308C83.1088 41.8527 83.5842 46.049 83.5842 50.8169C83.5842 54.5435 83.2616 58.0409 82.6165 61.3063C82.5655 61.5695 82.7608 61.8128 83.0268 61.8213C87.8201 61.96 92.2004 62.209 96.2297 62.5542C96.4137 62.5712 96.5891 62.4665 96.6627 62.2967C98.1086 58.9691 98.8358 55.1745 98.8358 50.9103C98.8358 45.6982 97.7549 41.1849 95.5931 37.3734C93.4318 33.5629 90.4135 30.6064 86.5383 28.5098C86.5371 28.5091 86.5371 28.5074 86.5383 28.5068V28.5068Z" fill="white"/>
<path d="M37.849 65.214C37.8473 65.2124 37.8447 65.212 37.8426 65.2132C35.1102 66.737 32.2195 67.5003 29.1705 67.5003C25.8655 67.5003 23.0048 66.5779 20.5911 64.7358C18.1746 62.8287 16.3014 60.2226 14.9658 56.9176C13.6303 53.5475 12.9625 49.6709 12.9625 45.285C12.9625 41.8527 13.3445 38.7373 14.1056 35.9416C14.9319 33.146 16.075 30.9219 17.538 29.2666C19.0631 27.6141 20.8429 26.7878 22.8774 26.7878C25.8655 26.7878 28.1858 28.6639 29.8383 32.4131C31.4285 36.0831 32.252 40.9869 32.3142 47.1271C32.317 47.4554 32.6679 47.6619 32.9565 47.5035L43.4968 41.6179C43.6553 41.5301 43.743 41.3519 43.7147 41.1736C42.9734 36.3576 40.8596 32.5489 37.3707 29.7448C33.8762 26.8218 29.4563 25.3589 24.1196 25.3589C19.5442 25.3589 15.4129 26.4709 11.7259 28.695C8.10402 30.8568 5.24328 33.9072 3.14653 37.8488C1.04979 41.7254 0 46.2075 0 51.2923C0 56.3771 0.922454 60.5395 2.76453 64.3538C4.67169 68.1681 7.3089 71.1534 10.679 73.3152C13.3247 74.962 16.2646 75.9609 19.4989 76.3146C19.5838 76.3231 19.6715 76.3061 19.7479 76.2693C27.402 72.3248 34.6883 69.4415 41.2982 67.3391C41.3803 67.3136 41.4539 67.2627 41.5076 67.1948C43.2705 64.9763 44.6117 62.4891 45.5342 59.7246C45.6106 59.4954 45.4804 59.2435 45.2456 59.1756L45.0135 59.1077C44.8353 59.0539 44.6457 59.1219 44.5382 59.2747C42.7845 61.758 40.5588 63.7381 37.8553 65.2149C37.8532 65.2161 37.8506 65.2157 37.849 65.214V65.214Z" fill="white"/>
</svg>
